{"title":"French Montana - Ain't Worried About Nothin [Explicit] 1080p [Sb","uid":8725328,"size":161441267,"categoryP":"video","categoryS":"music_videos","magnet":"?xt=urn:btih:3c4aa654c8e31f72784d58e735045b48959e9813&amp;dn=French+Montana+-+Ain%27t+Worried+About+Nothin+%5BExplicit%5D+1080p+%5BSb&amp;tr=udp%3A%2F%2Ftracker.openbittorrent.com%3A80&amp;tr=udp%3A%2F%2Fopen.demonii.com%3A1337&amp;tr=udp%3A%2F%2Ftracker.coppersurfer.tk%3A6969&amp;tr=udp%3A%2F%2Fexodus.desync.com%3A6969","seeders":5,"leechers":0,"uploader":"Sbyky","files":-1,"time":1374507487,"description":"\n\nGeneral\nComplete name                            : French Montana - Ain't Worried About Nothin [Explicit] 1080p [Sbyky].mp4\nFormat                                   : MPEG-4\nFormat profile                           : Base Media / Version 2\nCodec ID                                 : mp42\nFile size                                : 154 MiB\nDuration                                 : 3mn 35s\nOverall bit rate mode                    : Variable\nOverall bit rate                         : 6 003 Kbps\nEncoded date                             : UTC 2013-05-06 17:13:44\nTagged date                              : UTC 2013-05-06 17:13:44\n\nVideo\nID                                       : 1\nFormat                                   : AVC\nFormat/Info                              : Advanced Video Codec\nFormat profile                           : &lt;a class=&quot;__cf_email__&quot; href=&quot;/cdn-cgi/l/email-protection&quot; data-cfemail=&quot;82caebe5eac2ceb6acb2&quot;&gt;[email&amp;#160;protected]&lt;/a&gt;&lt;script cf-hash='f9e31' type=&quot;text/javascript&quot;&gt;\n/* &lt;![CDATA[ */!function(){try{var t=&quot;currentScript&quot;in document?document.currentScript:function(){for(var t=document.getElementsByTagName(&quot;script&quot;),e=t.length;e--;)if(t[e].getAttribute(&quot;cf-hash&quot;))return t[e]}();if(t&amp;&amp;t.previousSibling){var e,r,n,i,c=t.previousSibling,a=c.getAttribute(&quot;data-cfemail&quot;);if(a){for(e=&quot;&quot;,r=parseInt(a.substr(0,2),16),n=2;a.length-n;n+=2)i=parseInt(a.substr(n,2),16)^r,e+=String.fromCharCode(i);e=document.createTextNode(e),c.parentNode.replaceChild(e,c)}}}catch(u){}}();/* ]]&gt; */&lt;/script&gt;\nFormat settings, CABAC                   : Yes\nFormat settings, ReFrames                : 1 frame\nCodec ID                                 : avc1\nCodec ID/Info                            : Advanced Video Coding\nDuration                                 : 3mn 35s\nBit rate                                 : 5 809 Kbps\nMaximum bit rate                         : 10.7 Mbps\nWidth                                    : 1 920 pixels\nHeight                                   : 1 080 pixels\nDisplay aspect ratio                     : 16:9\nFrame rate mode                          : Constant\nFrame rate                               : 24.000 fps\nColor space                              : YUV\nChroma subsampling                       : 4:2:0\nBit depth                                : 8 bits\nScan type                                : Progressive\nBits/(Pixel*Frame)                       : 0.117\nStream size                              : 149 MiB (97%)\nTagged date                              : UTC 2013-05-06 17:14:01\n\nAudio\nID                                       : 2\nFormat                                   : AAC\nFormat/Info                              : Advanced Audio Codec\nFormat profile                           : LC\nCodec ID                                 : 40\nDuration                                 : 3mn 35s\nBit rate mode                            : Variable\nBit rate                                 : 192 Kbps\nMaximum bit rate                         : 203 Kbps\nChannel(s)                               : 2 channels\nChannel positions                        : Front: L R\nSampling rate                            : 44.1 KHz\nCompression mode                         : Lossy\nStream size                              : 4.92 MiB (3%)\nTitle                                    : IsoMedia File Produced by Google, 5-11-2011\nEncoded date                             : UTC 2013-05-06 17:13:56\nTagged date                              : UTC 2013-05-06 17:14:01\n\nShared By Sbyky\n","torrent":{"xt":"urn:btih:3c4aa654c8e31f72784d58e735045b48959e9813","amp;dn":"French+Montana+-+Ain%27t+Worried+About+Nothin+%5BExplicit%5D+1080p+%5BSb","amp;tr":["udp%3A%2F%2Ftracker.openbittorrent.com%3A80","udp%3A%2F%2Fopen.demonii.com%3A1337","udp%3A%2F%2Ftracker.coppersurfer.tk%3A6969","udp%3A%2F%2Fexodus.desync.com%3A6969"],"infoHash":"3c4aa654c8e31f72784d58e735045b48959e9813","infoHashBuffer":{"type":"Buffer","data":[60,74,166,84,200,227,31,114,120,77,88,231,53,4,91,72,149,158,152,19]},"announce":[],"urlList":[]}}